<svg width="80" height="80" viewBox="0 0 80 80" fill="none" xmlns="http://www.w3.org/2000/svg">
<g clip-path="url(#clip0_78_230)">
<path fill-rule="evenodd" clip-rule="evenodd" d="M26.5859 34.0008H4.40254C1.97336 34.0008 0.00158691 32.0288 0.00158691 29.5978V6.40387C0.00158691 3.97287 1.97336 2.00085 4.40254 2.00085H41.601C44.0301 2.00085 46.0009 3.97287 46.0009 6.40387V25.3498C50.7309 27.5988 54.0034 32.4208 54.0034 38.0008C54.0034 45.7278 47.7243 52.0008 40.006 52.0008C32.2785 52.0008 25.9992 45.7278 25.9992 38.0008C25.9992 36.6108 26.2009 35.2688 26.5859 34.0008ZM46.0009 27.6078V29.5978C46.0009 32.0288 44.0301 34.0008 41.601 34.0008H28.685C28.245 35.2519 27.9975 36.5989 27.9975 38.0008C27.9975 44.6238 33.3785 50.0008 40.006 50.0008C46.6243 50.0008 52.0051 44.6238 52.0051 38.0008C52.0051 33.5628 49.5851 29.6848 46.0009 27.6078ZM41.601 4.00085H4.40254C3.07337 4.00085 2.00087 5.07687 2.00087 6.40387V29.5978C2.00087 30.9248 3.07337 32.0008 4.40254 32.0008H41.601C42.9301 32.0008 44.0026 30.9248 44.0026 29.5978V6.40387C44.0026 5.07687 42.9301 4.00085 41.601 4.00085ZM21.7092 26.7079C21.3151 27.0979 20.6825 27.0979 20.2975 26.7079C19.9034 26.3179 19.9034 25.6838 20.2975 25.2938L36.2934 9.29385C36.6876 8.90385 37.3201 8.90385 37.7051 9.29385C38.0993 9.68385 38.0993 10.3179 37.7051 10.7079L21.7092 26.7079ZM10.0034 19.0009H7.00584C6.44668 19.0009 6.00671 18.5529 6.00671 18.0009C6.00671 17.4489 6.44668 17.0009 7.00584 17.0009H10.0034V14.0009C10.0034 13.4489 10.4525 13.0009 11.0025 13.0009C11.5525 13.0009 12.0017 13.4489 12.0017 14.0009V17.0009H14.9992C15.5584 17.0009 15.9984 17.4489 15.9984 18.0009C15.9984 18.5529 15.5584 19.0009 14.9992 19.0009H12.0017V22.0009C12.0017 22.5529 11.5525 23.0009 11.0025 23.0009C10.4525 23.0009 10.0034 22.5529 10.0034 22.0009V19.0009ZM35.0009 19.0009C37.2101 19.0009 38.9975 20.7929 38.9975 23.0009C38.9975 25.2089 37.2101 27.0009 35.0009 27.0009C32.7917 27.0009 31.0042 25.2089 31.0042 23.0009C31.0042 20.7929 32.7917 19.0009 35.0009 19.0009ZM35.0009 21.0009C33.9009 21.0009 33.0026 21.8969 33.0026 23.0009C33.0026 24.1049 33.9009 25.0009 35.0009 25.0009C36.1101 25.0009 36.9993 24.1049 36.9993 23.0009C36.9993 21.8969 36.1101 21.0009 35.0009 21.0009ZM23.0017 9.00085C25.2109 9.00085 26.9984 10.7929 26.9984 13.0009C26.9984 15.2089 25.2109 17.0009 23.0017 17.0009C20.7926 17.0009 19.0051 15.2089 19.0051 13.0009C19.0051 10.7929 20.7926 9.00085 23.0017 9.00085ZM23.0017 11.0009C21.9017 11.0009 21.0034 11.8969 21.0034 13.0009C21.0034 14.1049 21.9017 15.0009 23.0017 15.0009C24.1017 15.0009 25.0001 14.1049 25.0001 13.0009C25.0001 11.8969 24.1017 11.0009 23.0017 11.0009ZM47.6967 54.0008C52.7476 54.0008 57.5968 56.0088 61.1718 59.5828C64.7468 63.1568 66.7543 68.0039 66.7543 73.0578V75.0008C66.7543 75.5528 66.3052 76.0008 65.7552 76.0008H14.2567C13.6976 76.0008 13.2484 75.5528 13.2484 75.0008V73.0578C13.2484 68.0039 15.2559 63.1568 18.8309 59.5828C22.4059 56.0088 27.2551 54.0008 32.3059 54.0008H47.6967ZM47.6967 56.0008H32.3059C27.7868 56.0008 23.4509 57.7978 20.2517 60.9968C17.0525 64.1958 15.2559 68.5339 15.2559 73.0578V74.0008H64.756V73.0578C64.756 68.5339 62.9593 64.1958 59.7601 60.9968C56.5609 57.7978 52.2159 56.0008 47.6967 56.0008ZM67.0018 39.0008H60.9976C60.4476 39.0008 59.9985 38.5528 59.9985 38.0008C59.9985 37.4488 60.4476 37.0008 60.9976 37.0008H67.0018V31.0008C67.0018 30.4488 67.451 30.0008 68.001 30.0008C68.551 30.0008 69.0002 30.4488 69.0002 31.0008V37.0008H75.0043C75.5543 37.0008 76.0035 37.4488 76.0035 38.0008C76.0035 38.5528 75.5543 39.0008 75.0043 39.0008H69.0002V45.0008C69.0002 45.5528 68.551 46.0008 68.001 46.0008C67.451 46.0008 67.0018 45.5528 67.0018 45.0008V39.0008Z" fill="url(#paint0_linear_78_230)"/>
</g>
<defs>
<linearGradient id="paint0_linear_78_230" x1="4.99835" y1="10.0009" x2="64.9485" y2="64.2851" gradientUnits="userSpaceOnUse">
<stop stop-color="#B91CB4"/>
<stop offset="0.5" stop-color="#8BCFF8"/>
<stop offset="1" stop-color="#4174FE"/>
</linearGradient>
<clipPath id="clip0_78_230">
<rect width="80" height="80" fill="white"/>
</clipPath>
</defs>
</svg>
