<svg width="80" height="80" viewBox="0 0 80 80" fill="none" xmlns="http://www.w3.org/2000/svg">
<g clip-path="url(#clip0_2058_18)">
<mask id="mask0_2058_18" style="mask-type:luminance" maskUnits="userSpaceOnUse" x="0" y="0" width="81" height="81">
<path d="M80.0002 0H0V80.0003H80.0002V0Z" fill="white"/>
</mask>
<g mask="url(#mask0_2058_18)">
<path fill-rule="evenodd" clip-rule="evenodd" d="M4.00098 50H3.46094C1.55094 50 0.000976562 48.453 0.000976562 46.544V14.456C0.000976562 12.547 1.55094 11 3.46094 11H4.00098V6C4.00098 5.448 4.45098 5 5.00098 5C5.55098 5 6.00098 5.448 6.00098 6V11H6.54102C8.45103 11 10.001 12.547 10.001 14.456V46.544C10.001 48.453 8.45103 50 6.54102 50H6.00098V63C6.00098 63.552 5.55098 64 5.00098 64C4.45098 64 4.00098 63.552 4.00098 63V50ZM6.54102 13H3.46094C2.65094 13 2.00098 13.652 2.00098 14.456V46.544C2.00098 47.348 2.65094 48 3.46094 48H6.54102C7.35102 48 8.00099 47.348 8.00099 46.544V14.456C8.00099 13.652 7.35102 13 6.54102 13ZM16.001 62H15.461C13.551 62 12.001 60.453 12.001 58.544V50.456C12.001 48.547 13.551 47 15.461 47H16.001V31C16.001 30.448 16.451 30 17.001 30C17.551 30 18.001 30.448 18.001 31V47H18.541C20.451 47 22.001 48.547 22.001 50.456V58.544C22.001 60.453 20.451 62 18.541 62H18.001V65C18.001 65.552 17.551 66 17.001 66C16.451 66 16.001 65.552 16.001 65V62ZM18.541 49H15.461C14.651 49 14.001 49.652 14.001 50.456V58.544C14.001 59.348 14.651 60 15.461 60H18.541C19.351 60 20.001 59.348 20.001 58.544V50.456C20.001 49.652 19.351 49 18.541 49ZM40.001 41H39.461C38.541 41 37.661 40.636 37.011 39.988C36.361 39.34 36.001 38.461 36.001 37.544V33.456C36.001 32.539 36.361 31.66 37.011 31.012C37.661 30.364 38.541 30 39.461 30H40.001V19C40.001 18.448 40.451 18 41.001 18C41.551 18 42.001 18.448 42.001 19V30H42.5411C43.4611 30 44.341 30.364 44.991 31.012C45.641 31.66 46.001 32.539 46.001 33.456V37.544C46.001 38.461 45.641 39.34 44.991 39.988C44.341 40.636 43.4611 41 42.5411 41H42.001V55.5C42.001 56.052 41.551 56.5 41.001 56.5C40.451 56.5 40.001 56.052 40.001 55.5V41ZM42.5411 32H39.461C39.071 32 38.7011 32.153 38.4311 32.426C38.1511 32.7 38.001 33.07 38.001 33.456V37.544C38.001 37.93 38.1511 38.3 38.4311 38.574C38.7011 38.847 39.071 39 39.461 39H42.5411C42.9311 39 43.301 38.847 43.571 38.574C43.851 38.3 44.001 37.93 44.001 37.544V33.456C44.001 33.07 43.851 32.7 43.571 32.426C43.301 32.153 42.9311 32 42.5411 32ZM28.001 57.5H27.461C26.541 57.5 25.661 57.136 25.011 56.488C24.361 55.84 24.001 54.961 24.001 54.044V34.456C24.001 33.539 24.361 32.66 25.011 32.012C25.661 31.364 26.541 31 27.461 31H28.001V20.5C28.001 19.948 28.451 19.5 29.001 19.5C29.551 19.5 30.001 19.948 30.001 20.5V31H30.5411C31.4611 31 32.341 31.364 32.991 32.012C33.641 32.66 34.001 33.539 34.001 34.456V54.044C34.001 54.961 33.641 55.84 32.991 56.488C32.341 57.136 31.4611 57.5 30.5411 57.5H30.001V67.5C30.001 68.052 29.551 68.5 29.001 68.5C28.451 68.5 28.001 68.052 28.001 67.5V57.5ZM30.5411 33H27.461C27.071 33 26.7011 33.153 26.4311 33.426C26.1511 33.7 26.001 34.07 26.001 34.456V54.044C26.001 54.43 26.1511 54.8 26.4311 55.074C26.7011 55.347 27.071 55.5 27.461 55.5H30.5411C30.9311 55.5 31.301 55.347 31.571 55.074C31.851 54.8 32.001 54.43 32.001 54.044V34.456C32.001 34.07 31.851 33.7 31.571 33.426C31.301 33.153 30.9311 33 30.5411 33ZM80.0011 13.825V31.175C80.0011 35.497 76.5011 39 72.1711 39H55.831C51.501 39 48.001 35.497 48.001 31.175V13.825C48.001 9.50301 51.501 6 55.831 6H72.1711C76.5011 6 80.0011 9.50301 80.0011 13.825ZM78.0011 13.825C78.0011 10.608 75.3911 8 72.1711 8H55.831C52.611 8 50.001 10.608 50.001 13.825V31.175C50.001 34.392 52.611 37 55.831 37H72.1711C75.3911 37 78.0011 34.392 78.0011 31.175V13.825ZM71.0011 17.414L56.711 31.707C56.321 32.097 55.6811 32.097 55.2911 31.707C54.9011 31.317 54.9011 30.683 55.2911 30.293L69.591 16H60.001C59.451 16 59.001 15.552 59.001 15C59.001 14.448 59.451 14 60.001 14H72.0011C72.2711 14 72.521 14.105 72.711 14.293C72.891 14.481 73.0011 14.734 73.0011 15V27C73.0011 27.552 72.5511 28 72.0011 28C71.4511 28 71.0011 27.552 71.0011 27V17.414ZM80.0011 66.175C80.0011 70.497 76.5011 74 72.1711 74H55.831C51.501 74 48.001 70.497 48.001 66.175V48.825C48.001 44.503 51.501 41 55.831 41H72.1711C76.5011 41 80.0011 44.503 80.0011 48.825V66.175ZM78.0011 66.175V48.825C78.0011 45.608 75.3911 43 72.1711 43H55.831C52.611 43 50.001 45.608 50.001 48.825V66.175C50.001 69.392 52.611 72 55.831 72H72.1711C75.3911 72 78.0011 69.392 78.0011 66.175ZM69.591 64L55.2911 49.707C54.9011 49.317 54.9011 48.683 55.2911 48.293C55.6811 47.903 56.321 47.903 56.711 48.293L71.0011 62.586V53C71.0011 52.448 71.4511 52 72.0011 52C72.5511 52 73.0011 52.448 73.0011 53V65C73.0011 65.266 72.891 65.519 72.711 65.707C72.521 65.895 72.2711 66 72.0011 66H60.001C59.451 66 59.001 65.552 59.001 65C59.001 64.448 59.451 64 60.001 64H69.591Z" fill="url(#paint0_linear_2058_18)"/>
</g>
</g>
<defs>
<linearGradient id="paint0_linear_2058_18" x1="7" y1="12.5" x2="71.5" y2="74.5" gradientUnits="userSpaceOnUse">
<stop stop-color="#AC13BC"/>
<stop offset="0.515" stop-color="#8AD9FC"/>
<stop offset="1" stop-color="#4B75F0"/>
</linearGradient>
<clipPath id="clip0_2058_18">
<rect width="80" height="80" fill="white"/>
</clipPath>
</defs>
</svg>
