<svg width="80" height="80" viewBox="0 0 80 80" fill="none" xmlns="http://www.w3.org/2000/svg">
<g clip-path="url(#clip0_2058_28)">
<path fill-rule="evenodd" clip-rule="evenodd" d="M9.00049 43.914C8.53049 43.654 8.10046 43.328 7.72046 42.944C6.62046 41.844 6.00049 40.352 6.00049 38.796V10.866C6.00049 9.31 6.62046 7.81799 7.72046 6.71799C8.82046 5.61799 10.3105 5 11.8705 5H68.1306C69.6906 5 71.1806 5.61799 72.2806 6.71799C73.3806 7.81799 74.0006 9.31 74.0006 10.866V38.796C74.0006 40.352 73.3806 41.844 72.2806 42.944C71.9006 43.329 71.4606 43.655 71.0006 43.916C71.0006 43.944 71.0006 43.972 71.0006 44V45.886C71.0006 47.507 70.3605 49.062 69.2105 50.209C68.8405 50.578 68.4305 50.895 67.9905 51.156C68.0005 51.21 68.0006 51.265 68.0006 51.322V52.886C68.0006 54.507 67.3605 56.062 66.2105 57.209C65.8405 57.578 65.4305 57.895 64.9905 58.156C65.0005 58.21 65.0006 58.265 65.0006 58.322V59.886C65.0006 61.507 64.3605 63.062 63.2105 64.209C62.5805 64.841 61.8205 65.32 61.0005 65.623V66.886C61.0005 70.262 58.2606 73 54.8906 73H25.1105C21.7405 73 19.0005 70.262 19.0005 66.886V65.623C18.1805 65.32 17.4205 64.841 16.7905 64.209C15.6405 63.062 15.0005 61.507 15.0005 59.886V58.147C14.5605 57.889 14.1605 57.574 13.7905 57.209C12.6405 56.062 12.0005 54.507 12.0005 52.886V51.147C11.5605 50.889 11.1605 50.574 10.7905 50.209C9.64053 49.062 9.00049 47.507 9.00049 45.886V43.914ZM69.0006 44.598C68.7206 44.641 68.4206 44.662 68.1306 44.662H11.8705C11.5805 44.662 11.2905 44.641 11.0005 44.598V45.886C11.0005 46.977 11.4304 48.023 12.2004 48.795C12.9804 49.567 14.0205 50 15.1105 50H64.8906C65.9806 50 67.0206 49.567 67.8006 48.795C68.5706 48.023 69.0006 46.977 69.0006 45.886V44.598ZM66.0006 51.898C65.6306 51.965 65.2606 52 64.8906 52H15.1105C14.7405 52 14.3705 51.965 14.0005 51.898V52.886C14.0005 53.977 14.4304 55.023 15.2004 55.795C15.9804 56.567 17.0205 57 18.1105 57H61.8906C62.9806 57 64.0206 56.567 64.8006 55.795C65.5706 55.023 66.0006 53.977 66.0006 52.886V51.898ZM63.0005 58.898C62.6306 58.965 62.2606 59 61.8906 59H18.1105C17.7405 59 17.3705 58.965 17.0005 58.898V59.886C17.0005 60.977 17.4305 62.023 18.2105 62.795C18.9805 63.567 20.0205 64 21.1105 64H58.8906C59.9806 64 61.0206 63.567 61.8006 62.795C62.5706 62.023 63.0005 60.977 63.0005 59.886V58.898ZM59.0005 65.999C58.9605 66 58.9206 66 58.8906 66H21.1105C21.0805 66 21.0405 66 21.0005 65.999V66.886C21.0005 69.158 22.8405 71 25.1105 71H54.8906C57.1606 71 59.0005 69.158 59.0005 66.886V65.999ZM72.0006 10.866C72.0006 9.841 71.5906 8.85699 70.8706 8.13199C70.1405 7.40699 69.1606 7 68.1306 7H11.8705C10.8405 7 9.8605 7.40699 9.1305 8.13199C8.4105 8.85699 8.00049 9.841 8.00049 10.866V38.796C8.00049 39.821 8.4105 40.805 9.1305 41.53C9.8605 42.255 10.8405 42.662 11.8705 42.662H68.1306C69.1606 42.662 70.1405 42.255 70.8706 41.53C71.5906 40.805 72.0006 39.821 72.0006 38.796V10.866ZM39.5005 12C43.0905 12 46.0005 14.913 46.0005 18.5C46.0005 22.087 43.0905 25 39.5005 25C35.9105 25 33.0005 22.087 33.0005 18.5C33.0005 14.913 35.9105 12 39.5005 12ZM39.5005 14C37.0205 14 35.0005 16.016 35.0005 18.5C35.0005 20.984 37.0205 23 39.5005 23C41.9805 23 44.0005 20.984 44.0005 18.5C44.0005 16.016 41.9805 14 39.5005 14ZM56.5005 25C60.0905 25 63.0005 27.913 63.0005 31.5C63.0005 35.087 60.0905 38 56.5005 38C52.9105 38 50.0005 35.087 50.0005 31.5C50.0005 27.913 52.9105 25 56.5005 25ZM56.5005 27C54.0205 27 52.0005 29.016 52.0005 31.5C52.0005 33.984 54.0205 36 56.5005 36C58.9805 36 61.0005 33.984 61.0005 31.5C61.0005 29.016 58.9805 27 56.5005 27ZM36.7105 37.707C36.3205 38.097 35.6806 38.097 35.2906 37.707C34.9006 37.317 34.9006 36.683 35.2906 36.293L58.2906 13.293C58.6806 12.903 59.3205 12.903 59.7105 13.293C60.1005 13.683 60.1005 14.317 59.7105 14.707L36.7105 37.707ZM22.0005 26H17.0005C16.4505 26 16.0005 25.552 16.0005 25C16.0005 24.448 16.4505 24 17.0005 24H22.0005V19C22.0005 18.448 22.4505 18 23.0005 18C23.5505 18 24.0005 18.448 24.0005 19V24H29.0005C29.5505 24 30.0005 24.448 30.0005 25C30.0005 25.552 29.5505 26 29.0005 26H24.0005V31C24.0005 31.552 23.5505 32 23.0005 32C22.4505 32 22.0005 31.552 22.0005 31V26Z" fill="url(#paint0_linear_2058_28)"/>
</g>
<defs>
<linearGradient id="paint0_linear_2058_28" x1="5" y1="8" x2="58" y2="75.5" gradientUnits="userSpaceOnUse">
<stop stop-color="#AC13BC"/>
<stop offset="0.528864" stop-color="#8ADAFC"/>
<stop offset="1" stop-color="#4C76F1"/>
</linearGradient>
<clipPath id="clip0_2058_28">
<rect width="80" height="80" fill="white"/>
</clipPath>
</defs>
</svg>
