<svg width="80" height="80" viewBox="0 0 80 80" fill="none" xmlns="http://www.w3.org/2000/svg">
<g clip-path="url(#clip0_2058_12)">
<path fill-rule="evenodd" clip-rule="evenodd" d="M22.0009 58H14.386C7.54579 58 2.00037 52.4559 2.00037 45.6138V14.3868C2.00037 7.54667 7.54579 2.00049 14.386 2.00049H45.6135C52.4538 2.00049 57.9992 7.54667 57.9992 14.3868V21.9998H65.6141C72.4543 21.9998 77.9997 27.5459 77.9997 34.386V65.6151C77.9997 72.4552 72.4543 78.0012 65.6141 78.0012H34.3865C27.5463 78.0012 22.0009 72.4552 22.0009 65.6151V58ZM57.9992 24.0009V29.5024C66.1923 32.7065 72.0011 40.6798 72.0011 49.9995C72.0011 62.1417 62.1427 71.9999 50.0003 71.9999C40.6799 71.9999 32.7055 66.1923 29.502 58H24.0011V65.6151C24.0011 71.351 28.6491 76.0001 34.3865 76.0001H65.6141C71.3493 76.0001 75.9995 71.351 75.9995 65.6151V34.386C75.9995 28.6501 71.3493 24.0009 65.6141 24.0009H57.9992ZM57.9992 31.6662V45.6138C57.9992 48.3239 57.1285 50.8325 55.6529 52.8704C57.1709 53.3702 58.4859 54.0617 59.5039 54.8831C61.1023 56.1713 61.9998 57.7831 61.9998 59.5014C61.9998 61.2177 61.1023 62.8294 59.5039 64.1176C57.3585 65.8456 53.9049 67.0001 50.0003 67.0001C46.0958 67.0001 42.6421 65.8456 40.4968 64.1176C38.8983 62.8294 38.0009 61.2177 38.0009 59.5014C38.0009 58.9899 38.079 58.4882 38.233 58H31.6674C34.7549 65.061 41.805 70.0007 50.0003 70.0007C61.0376 70.0007 70.0009 61.0394 70.0009 49.9995C70.0009 41.8053 65.0604 34.756 57.9992 31.6662ZM54.2174 54.5247C51.9894 56.6769 48.9555 58 45.6135 58H40.3963C40.1418 58.4727 40.0012 58.9744 40.0012 59.5014C40.0012 60.654 40.6776 61.6942 41.7514 62.5601C43.6111 64.0575 46.6182 65.0009 50.0003 65.0009C53.3825 65.0009 56.3896 64.0575 58.2492 62.5601C59.323 61.6942 59.9994 60.654 59.9994 59.5014C59.9994 58.3468 59.323 57.3065 58.2492 56.4406C57.2156 55.6096 55.827 54.947 54.2174 54.5247ZM56.0012 14.3868C56.0012 8.65085 51.3509 3.99972 45.6135 3.99972H14.386C8.65085 3.99972 4.00064 8.65085 4.00064 14.3868V45.6138C4.00064 51.3498 8.65085 56.0009 14.386 56.0009H45.6135C51.3509 56.0009 56.0012 51.3498 56.0012 45.6138V14.3868ZM29.9998 7.99997C42.1421 7.99997 52.0006 17.8582 52.0006 30.0003C52.0006 42.1424 42.1421 52.0006 29.9998 52.0006C17.8575 52.0006 8.00117 42.1424 8.00117 30.0003C8.00117 17.8582 17.8575 7.99997 29.9998 7.99997ZM29.9998 10.001C18.9625 10.001 9.99923 18.9624 9.99923 30.0003C9.99923 41.0383 18.9625 49.9995 29.9998 49.9995C41.0392 49.9995 50.0003 41.0383 50.0003 30.0003C50.0003 18.9624 41.0392 10.001 29.9998 10.001ZM29.9998 32.0013C33.9043 32.0013 37.3579 33.154 39.5033 34.8839C41.1017 36.1721 41.9992 37.7838 41.9992 39.5001C41.9992 41.2165 41.1017 42.8301 39.5033 44.1164C37.3579 45.8463 33.9043 47.0008 29.9998 47.0008C26.0952 47.0008 22.6416 45.8463 20.4962 44.1164C18.9 42.8301 18.0003 41.2165 18.0003 39.5001C18.0003 37.7838 18.9 36.1721 20.4962 34.8839C22.6416 33.154 26.0952 32.0013 29.9998 32.0013ZM29.9998 34.0006C26.6198 34.0006 23.6105 34.944 21.7508 36.4414C20.6793 37.3054 20.0006 38.3475 20.0006 39.5001C20.0006 40.6527 20.6793 41.6949 21.7508 42.5589C23.6105 44.0582 26.6198 44.9997 29.9998 44.9997C33.3819 44.9997 36.3913 44.0582 38.2487 42.5589C39.3225 41.6949 40.0012 40.6527 40.0012 39.5001C40.0012 38.3475 39.3225 37.3054 38.2487 36.4414C36.3913 34.944 33.3819 34.0006 29.9998 34.0006ZM29.9998 16.0005C33.8641 16.0005 37.0008 19.1366 37.0008 23.0013C37.0008 26.864 33.8641 30.0003 29.9998 30.0003C26.1376 30.0003 23.001 26.864 23.001 23.0013C23.001 19.1366 26.1376 16.0005 29.9998 16.0005ZM29.9998 17.9996C27.2405 17.9996 24.9991 20.2408 24.9991 23.0013C24.9991 25.7598 27.2405 28.0012 29.9998 28.0012C32.7591 28.0012 35.0004 25.7598 35.0004 23.0013C35.0004 20.2408 32.7591 17.9996 29.9998 17.9996Z" fill="url(#paint0_linear_2058_12)"/>
</g>
<defs>
<linearGradient id="paint0_linear_2058_12" x1="2" y1="5" x2="71" y2="75" gradientUnits="userSpaceOnUse">
<stop stop-color="#AC13BC"/>
<stop offset="0.495" stop-color="#88DCFD"/>
<stop offset="1" stop-color="#4C76F1"/>
</linearGradient>
<clipPath id="clip0_2058_12">
<rect width="80" height="80" fill="white"/>
</clipPath>
</defs>
</svg>
