<svg width="80" height="80" viewBox="0 0 80 80" fill="none" xmlns="http://www.w3.org/2000/svg">
<g clip-path="url(#clip0_78_224)">
<path fill-rule="evenodd" clip-rule="evenodd" d="M10.6761 34.0011H4.39821C1.97295 34.0011 0.00244141 32.0294 0.00244141 29.5978V6.40361C0.00244141 3.97203 1.97295 2.00024 4.39821 2.00024H41.5982C44.0235 2.00024 45.994 3.97203 45.994 6.40361V26.0003H53.0046C66.7982 26.0003 78.0025 37.2033 78.0025 51.0008C78.0025 64.7983 66.7982 76.0013 53.0046 76.0013H29.0045C28.9666 76.0013 28.9288 76.0013 28.8909 76.0013H28.8782C15.1351 75.9343 3.99391 64.7579 3.99391 51.0008C3.99391 44.4387 6.53291 38.4626 10.6761 34.0011ZM43.9982 29.5978V6.40361C43.9982 5.0773 42.9245 4.00107 41.5982 4.00107H4.39821C3.07189 4.00107 1.99818 5.0773 1.99818 6.40361V29.5978C1.99818 30.9241 3.07189 32.0003 4.39821 32.0003H41.5982C42.9245 32.0003 43.9982 30.9241 43.9982 29.5978ZM23.0045 9.00067C25.2024 9.00067 26.9961 10.7931 26.9961 13.0011C26.9961 15.2078 25.2024 17.0003 23.0045 17.0003C20.794 17.0003 19.0002 15.2078 19.0002 13.0011C19.0002 10.7931 20.794 9.00067 23.0045 9.00067ZM23.0045 11.0003C21.8929 11.0003 20.9961 11.8971 20.9961 13.0011C20.9961 14.1051 21.8929 15.0007 23.0045 15.0007C24.1035 15.0007 25.0003 14.1051 25.0003 13.0011C25.0003 11.8971 24.1035 11.0003 23.0045 11.0003ZM9.99392 19.0011H7.00024C6.44445 19.0011 6.00245 18.5527 6.00245 18.0007C6.00245 17.4487 6.44445 17.0003 7.00024 17.0003H9.99392V14.0003C9.99392 13.4483 10.4487 13.0011 11.0045 13.0011C11.5477 13.0011 12.0025 13.4483 12.0025 14.0003V17.0003H14.9961C15.5519 17.0003 15.9939 17.4487 15.9939 18.0007C15.9939 18.5527 15.5519 19.0011 14.9961 19.0011H12.0025V22.0011C12.0025 22.5531 11.5477 23.0003 11.0045 23.0003C10.4487 23.0003 9.99392 22.5531 9.99392 22.0011V19.0011ZM35.0045 19.0011C37.2024 19.0011 38.9962 20.7936 38.9962 23.0003C38.9962 25.2083 37.2024 27.0007 35.0045 27.0007C32.794 27.0007 31.0003 25.2083 31.0003 23.0003C31.0003 20.7936 32.794 19.0011 35.0045 19.0011ZM35.0045 21.0007C33.893 21.0007 32.9962 21.8963 32.9962 23.0003C32.9962 24.1043 33.893 25.0011 35.0045 25.0011C36.1035 25.0011 37.0003 24.1043 37.0003 23.0003C37.0003 21.8963 36.1035 21.0007 35.0045 21.0007ZM21.7034 26.7077C21.3118 27.098 20.6803 27.098 20.2887 26.7077C19.8971 26.3174 19.8971 25.6832 20.2887 25.2942L36.293 9.29372C36.6846 8.9034 37.3161 8.9034 37.7077 9.29372C38.0993 9.68404 38.0993 10.3182 37.7077 10.7072L21.7034 26.7077ZM45.994 29.0875V29.5978C45.994 32.0294 44.0235 34.0011 41.5982 34.0011H37.5182C32.895 38.2087 30.0025 44.2694 30.0025 51.0008C30.0025 63.6943 40.3098 74.0004 53.0046 74.0004C65.6867 74.0004 75.994 63.6943 75.994 51.0008C75.994 38.3073 65.6867 28.0011 53.0046 28.0011C50.554 28.0011 48.2045 28.3814 45.994 29.0875ZM48.0025 47.0004C48.0025 47.7962 48.3182 48.5591 48.874 49.1225C49.4424 49.6846 50.2004 50.0004 50.9962 50.0004H55.0003C57.7666 50.0004 60.0025 52.2387 60.0025 54.9987V55.0012C60.0025 56.3263 59.4719 57.5983 58.5372 58.5368C57.6025 59.4741 56.3266 60.0008 55.0003 60.0008H54.0025V63.0008C54.0025 63.5528 53.5477 64.0012 53.0046 64.0012C52.4488 64.0012 51.994 63.5528 51.994 63.0008V60.0008H50.9962C49.6699 60.0008 48.4066 59.4741 47.4593 58.5368C46.5245 57.5983 45.994 56.3263 45.994 55.0012C45.994 53.6433 48.0025 53.6433 48.0025 55.0012C48.0025 55.797 48.3182 56.56 48.874 57.1221C49.4424 57.6842 50.2004 58.0012 50.9962 58.0012H55.0003C55.7961 58.0012 56.554 57.6842 57.1225 57.1221C57.6783 56.56 57.994 55.797 57.994 55.0012V54.9987C57.994 53.3427 56.655 52.0012 55.0003 52.0012H50.9962C49.6699 52.0012 48.4066 51.4744 47.4593 50.5359C46.5245 49.5987 45.994 48.3267 45.994 47.0004C45.994 45.6753 46.5245 44.4033 47.4593 43.4648C48.4066 42.5275 49.6699 42.0008 50.9962 42.0008H51.994V39.0007C51.994 38.4487 52.4488 38.0003 53.0046 38.0003C53.5477 38.0003 54.0025 38.4487 54.0025 39.0007V42.0008H55.0003C56.3266 42.0008 57.6025 42.5275 58.5372 43.4648C59.4719 44.4033 60.0025 45.6753 60.0025 47.0004C60.0025 47.9439 59.0046 48.0008 59.0046 48.0008C58.7393 48.0008 58.4992 47.901 58.3224 47.738C58.1582 47.5991 58.0192 47.3869 58.0066 47.0622L57.994 47.0004C57.994 46.2046 57.6783 45.4416 57.1225 44.8795C56.554 44.3174 55.7961 44.0004 55.0003 44.0004H50.9962C50.2004 44.0004 49.4424 44.3174 48.874 44.8795C48.3182 45.4416 48.0025 46.2046 48.0025 47.0004ZM34.6761 34.0011H29.5098C24.8993 38.2087 21.9939 44.2694 21.9939 51.0008C21.9939 63.0185 31.2402 72.8964 42.9876 73.9145C34.1708 70.0518 27.9939 61.2412 27.9939 51.0008C27.9939 44.4387 30.5329 38.4626 34.6761 34.0011ZM26.6804 34.0011H21.5139C16.9034 38.2087 13.9982 44.2694 13.9982 51.0008C13.9982 63.0185 23.2319 72.8964 34.9919 73.9145C26.175 70.0518 19.9982 61.2412 19.9982 51.0008C19.9982 44.4387 22.5372 38.4626 26.6804 34.0011ZM18.6718 34.0011H13.5182C8.89502 38.2087 6.00245 44.2694 6.00245 51.0008C6.00245 63.0185 15.2361 72.8964 26.9961 73.9145C18.1667 70.0518 12.0025 61.2412 12.0025 51.0008C12.0025 44.4387 14.5287 38.4626 18.6718 34.0011Z" fill="url(#paint0_linear_78_224)"/>
</g>
<defs>
<linearGradient id="paint0_linear_78_224" x1="3.99402" y1="15.0007" x2="64.9942" y2="65.0007" gradientUnits="userSpaceOnUse">
<stop stop-color="#B91CB4"/>
<stop offset="0.55" stop-color="#8BD3FA"/>
<stop offset="1" stop-color="#2E66FE"/>
</linearGradient>
<clipPath id="clip0_78_224">
<rect width="80" height="80" fill="white"/>
</clipPath>
</defs>
</svg>
