<svg width="80" height="80" viewBox="0 0 80 80" fill="none" xmlns="http://www.w3.org/2000/svg">
<g clip-path="url(#clip0_2058_2)">
<mask id="mask0_2058_2" style="mask-type:luminance" maskUnits="userSpaceOnUse" x="0" y="0" width="81" height="81">
<path d="M80.0002 0H0V80.0003H80.0002V0Z" fill="white"/>
</mask>
<g mask="url(#mask0_2058_2)">
<path fill-rule="evenodd" clip-rule="evenodd" d="M0 71.762V8.23407C0 3.68507 3.687 -0.00195312 8.23601 -0.00195312H71.7641C76.3131 -0.00195312 80.0001 3.68507 80.0001 8.23407V71.762C80.0001 76.311 76.3131 79.998 71.7641 79.998H8.23601C3.687 79.998 0 76.311 0 71.762ZM78.0001 15.998V8.23407C78.0001 4.79007 75.2081 1.99805 71.7641 1.99805H8.23601C4.79201 1.99805 2 4.79007 2 8.23407V15.998H78.0001ZM16 5.99805C17.656 5.99805 19 7.34205 19 8.99804C19 10.654 17.656 11.998 16 11.998C14.344 11.998 13 10.654 13 8.99804C13 7.34205 14.344 5.99805 16 5.99805ZM16 7.99805C15.448 7.99805 15 8.44604 15 8.99804C15 9.55005 15.448 9.99804 16 9.99804C16.552 9.99804 17 9.55005 17 8.99804C17 8.44604 16.552 7.99805 16 7.99805ZM8.00001 5.99805C9.65601 5.99805 11 7.34205 11 8.99804C11 10.654 9.65601 11.998 8.00001 11.998C6.34401 11.998 5.00001 10.654 5.00001 8.99804C5.00001 7.34205 6.34401 5.99805 8.00001 5.99805ZM8.00001 7.99805C7.44801 7.99805 7.00001 8.44604 7.00001 8.99804C7.00001 9.55005 7.44801 9.99804 8.00001 9.99804C8.55201 9.99804 9.00001 9.55005 9.00001 8.99804C9.00001 8.44604 8.55201 7.99805 8.00001 7.99805ZM24 5.99805C25.656 5.99805 27 7.34205 27 8.99804C27 10.654 25.656 11.998 24 11.998C22.344 11.998 21 10.654 21 8.99804C21 7.34205 22.344 5.99805 24 5.99805ZM24 7.99805C23.448 7.99805 23 8.44604 23 8.99804C23 9.55005 23.448 9.99804 24 9.99804C24.552 9.99804 25 9.55005 25 8.99804C25 8.44604 24.552 7.99805 24 7.99805ZM2 17.998V71.762C2 75.206 4.79201 77.998 8.23601 77.998H71.7641C75.2081 77.998 78.0001 75.206 78.0001 71.762V17.998H2ZM68.0001 30.2911V38.705C68.0001 42.18 65.1821 44.998 61.7071 44.998H18.293C14.818 44.998 12 42.18 12 38.705V30.2911C12 26.8161 14.818 23.998 18.293 23.998H61.7071C65.1821 23.998 68.0001 26.8161 68.0001 30.2911ZM66.0001 30.2911C66.0001 27.9201 64.0781 25.998 61.7071 25.998H18.293C15.922 25.998 14 27.9201 14 30.2911V38.705C14 41.076 15.922 42.998 18.293 42.998H61.7071C64.0781 42.998 66.0001 41.076 66.0001 38.705V30.2911ZM22 35.998C21.448 35.998 21 35.55 21 34.998C21 34.446 21.448 33.998 22 33.998H28C28.552 33.998 29 34.446 29 34.998C29 35.55 28.552 35.998 28 35.998H22ZM33 35.998C32.448 35.998 32 35.55 32 34.998C32 34.446 32.448 33.998 33 33.998H51.0001C51.5521 33.998 52.0001 34.446 52.0001 34.998C52.0001 35.55 51.5521 35.998 51.0001 35.998H33ZM68.0001 55.2911V63.705C68.0001 67.18 65.1821 69.998 61.7071 69.998H18.293C14.818 69.998 12 67.18 12 63.705V55.2911C12 51.8161 14.818 48.998 18.293 48.998H61.7071C65.1821 48.998 68.0001 51.8161 68.0001 55.2911ZM66.0001 55.2911C66.0001 52.9201 64.0781 50.998 61.7071 50.998H18.293C15.922 50.998 14 52.9201 14 55.2911V63.705C14 66.076 15.922 67.998 18.293 67.998H61.7071C64.0781 67.998 66.0001 66.076 66.0001 63.705V55.2911ZM38 59.498L36.469 58.6141C35.991 58.3381 35.827 57.726 36.103 57.248C36.379 56.77 36.991 56.606 37.469 56.882L39 57.766V55.998C39 55.446 39.448 54.998 40 54.998C40.552 54.998 41 55.446 41 55.998V57.766L42.5311 56.882C43.0091 56.606 43.6211 56.77 43.8971 57.248C44.1731 57.726 44.0091 58.3381 43.5311 58.6141L42 59.498L43.5311 60.382C44.0091 60.658 44.1731 61.27 43.8971 61.748C43.6211 62.226 43.0091 62.3901 42.5311 62.1141L41 61.23V62.998C41 63.55 40.552 63.998 40 63.998C39.448 63.998 39 63.55 39 62.998V61.23L37.469 62.1141C36.991 62.3901 36.379 62.226 36.103 61.748C35.827 61.27 35.991 60.658 36.469 60.382L38 59.498ZM25 59.498L23.469 58.6141C22.991 58.3381 22.827 57.726 23.103 57.248C23.379 56.77 23.991 56.606 24.469 56.882L26 57.766V55.998C26 55.446 26.448 54.998 27 54.998C27.552 54.998 28 55.446 28 55.998V57.766L29.531 56.882C30.009 56.606 30.621 56.77 30.897 57.248C31.173 57.726 31.009 58.3381 30.531 58.6141L29 59.498L30.531 60.382C31.009 60.658 31.173 61.27 30.897 61.748C30.621 62.226 30.009 62.3901 29.531 62.1141L28 61.23V62.998C28 63.55 27.552 63.998 27 63.998C26.448 63.998 26 63.55 26 62.998V61.23L24.469 62.1141C23.991 62.3901 23.379 62.226 23.103 61.748C22.827 61.27 22.991 60.658 23.469 60.382L25 59.498ZM50.9691 59.498L49.4381 58.6141C48.9601 58.3381 48.7961 57.726 49.0721 57.248C49.3481 56.77 49.9601 56.606 50.4381 56.882L51.9691 57.766V55.998C51.9691 55.446 52.4171 54.998 52.9691 54.998C53.5211 54.998 53.9691 55.446 53.9691 55.998V57.766L55.5001 56.882C55.9781 56.606 56.5901 56.77 56.8661 57.248C57.1421 57.726 56.9781 58.3381 56.5001 58.6141L54.9691 59.498L56.5001 60.382C56.9781 60.658 57.1421 61.27 56.8661 61.748C56.5901 62.226 55.9781 62.3901 55.5001 62.1141L53.9691 61.23V62.998C53.9691 63.55 53.5211 63.998 52.9691 63.998C52.4171 63.998 51.9691 63.55 51.9691 62.998V61.23L50.4381 62.1141C49.9601 62.3901 49.3481 62.226 49.0721 61.748C48.7961 61.27 48.9601 60.658 49.4381 60.382L50.9691 59.498Z" fill="url(#paint0_linear_2058_2)"/>
</g>
</g>
<defs>
<linearGradient id="paint0_linear_2058_2" x1="-6.5" y1="2.077e-07" x2="70" y2="80" gradientUnits="userSpaceOnUse">
<stop stop-color="#AC13BC"/>
<stop offset="0.485" stop-color="#8ADBFD"/>
<stop offset="1" stop-color="#2D54CA"/>
</linearGradient>
<clipPath id="clip0_2058_2">
<rect width="80" height="80" fill="white"/>
</clipPath>
</defs>
</svg>
